<svg width="6086" height="1083" xmlns="http://www.w3.org/2000/svg" xmlns:xlink="http://www.w3.org/1999/xlink" xml:space="preserve" overflow="hidden"><g transform="translate(1094 -379)"><path d="M955.899 902.821C943.739 902.821 928.539 913.613 910.299 935.197 892.059 956.781 870.171 989.461 844.635 1033.24 837.947 1044.18 832.475 1055.58 828.219 1067.44 823.963 1079.29 821.227 1087.05 820.011 1090.69 829.739 1091.91 848.587 1080.97 876.555 1057.86 879.595 1055.43 882.939 1052.54 886.587 1049.2 890.235 1045.85 894.187 1042.36 898.443 1038.71 915.467 1024.73 928.691 1013.02 938.115 1003.6 947.539 994.173 957.115 982.773 966.843 969.397L986.907 936.565C980.827 923.189 975.355 914.221 970.491 909.661 965.627 905.101 960.763 902.821 955.899 902.821ZM4733.07 896.437C4720.3 896.437 4709.2 900.085 4699.78 907.381 4690.35 914.677 4678.04 927.749 4662.84 946.597 4653.72 958.757 4646.12 973.349 4640.04 990.373 4634.57 1005.57 4631.83 1018.65 4631.83 1029.59 4631.83 1042.97 4635.48 1051.17 4642.78 1054.21 4662.23 1053.61 4677.43 1050.26 4688.38 1044.18 4699.32 1038.1 4712.09 1023.51 4726.68 1000.41 4737.63 985.205 4745.07 971.525 4749.03 959.365 4752.98 947.205 4754.35 933.829 4753.13 919.237 4752.52 904.037 4745.83 896.437 4733.07 896.437ZM-207.021 890.053C-214.925 890.053-226.325 896.589-241.221 909.661-256.117 922.733-269.037 937.781-279.981 954.805-279.373 957.845-274.813 960.429-266.301 962.557-257.789 964.685-248.669 965.749-238.941 965.749-227.389 965.749-219.485 964.533-215.229 962.101-209.149 959.061-199.877 951.309-187.413 938.845-174.949 926.381-168.413 917.717-167.805 912.853-167.805 906.773-170.389 901.757-175.557 897.805-180.725 893.853-187.869 891.269-196.989 890.053ZM4037.46 887.403C4043.16 887.574 4049.88 890.737 4057.63 896.893 4067.97 905.101 4076.48 914.373 4083.17 924.709 4086.82 928.357 4088.64 933.221 4088.64 939.301 4088.64 948.421 4084.69 961.189 4076.79 977.605 4073.75 984.293 4070.86 992.501 4068.12 1002.23 4065.39 1011.96 4063.11 1021.08 4061.28 1029.59 4053.99 1046.01 4048.21 1061.21 4043.95 1075.19 4042.13 1083.09 4040.91 1089.17 4040.31 1093.43 4036.05 1115.93 4032.1 1130.52 4028.45 1137.21 4024.8 1152.41 4019.63 1163.81 4012.95 1171.41 4006.26 1179.01 3998.66 1182.81 3990.15 1182.81 3979.81 1182.81 3970.99 1178.55 3963.7 1170.04 3955.19 1161.53 3950.93 1146.33 3950.93 1124.44 3950.93 1112.89 3952.45 1104.07 3955.49 1097.99 3955.49 1094.95 3956.1 1091.3 3957.31 1087.05 3958.53 1082.79 3959.14 1080.05 3959.14 1078.84 3958.53 1075.19 3960.96 1065.16 3966.43 1048.74 3973.73 1032.33 3983 1007.09 3994.25 973.045 4005.5 938.997 4013.25 914.677 4017.51 900.085 4017.51 897.045 4018.72 894.461 4021.15 892.333 4023.59 890.205 4027.23 888.837 4032.1 888.229 4033.77 887.621 4035.56 887.346 4037.46 887.403ZM2793.46 887.403C2799.16 887.574 2805.88 890.737 2813.63 896.893 2823.97 905.101 2832.48 914.373 2839.17 924.709 2842.82 928.357 2844.64 933.221 2844.64 939.301 2844.64 948.421 2840.69 961.189 2832.79 977.605 2829.75 984.293 2826.86 992.501 2824.12 1002.23 2821.39 1011.96 2819.11 1021.08 2817.28 1029.59 2809.99 1046.01 2804.21 1061.21 2799.95 1075.19 2798.13 1083.09 2796.91 1089.17 2796.31 1093.43 2792.05 1115.93 2788.1 1130.52 2784.45 1137.21 2780.8 1152.41 2775.63 1163.81 2768.95 1171.41 2762.26 1179.01 2754.66 1182.81 2746.15 1182.81 2735.81 1182.81 2726.99 1178.55 2719.7 1170.04 2711.19 1161.53 2706.93 1146.33 2706.93 1124.44 2706.93 1112.89 2708.45 1104.07 2711.49 1097.99 2711.49 1094.95 2712.1 1091.3 2713.31 1087.05 2714.53 1082.79 2715.14 1080.05 2715.14 1078.84 2714.53 1075.19 2716.96 1065.16 2722.43 1048.74 2729.73 1032.33 2739 1007.09 2750.25 973.045 2761.5 938.997 2769.25 914.677 2773.51 900.085 2773.51 897.045 2774.72 894.461 2777.15 892.333 2779.59 890.205 2783.23 888.837 2788.1 888.229 2789.77 887.621 2791.56 887.346 2793.46 887.403ZM645.457 887.403C651.157 887.574 657.883 890.737 665.635 896.893 675.971 905.101 684.483 914.373 691.171 924.709 694.819 928.357 696.643 933.221 696.643 939.301 696.643 948.421 692.691 961.189 684.787 977.605 681.747 984.293 678.859 992.501 676.123 1002.23 673.387 1011.96 671.107 1021.08 669.283 1029.59 661.987 1046.01 656.211 1061.21 651.955 1075.19 650.131 1083.09 648.915 1089.17 648.307 1093.43 644.051 1115.93 640.099 1130.52 636.451 1137.21 632.803 1152.41 627.635 1163.81 620.947 1171.41 614.259 1179.01 606.659 1182.81 598.147 1182.81 587.811 1182.81 578.995 1178.55 571.699 1170.04 563.187 1161.53 558.931 1146.33 558.931 1124.44 558.931 1112.89 560.451 1104.07 563.491 1097.99 563.491 1094.95 564.099 1091.3 565.315 1087.05 566.531 1082.79 567.139 1080.05 567.139 1078.84 566.531 1075.19 568.963 1065.16 574.435 1048.74 581.731 1032.33 591.003 1007.09 602.251 973.045 613.499 938.997 621.251 914.677 625.507 900.085 625.507 897.045 626.723 894.461 629.155 892.333 631.587 890.205 635.235 888.837 640.099 888.229 641.771 887.621 643.557 887.346 645.457 887.403ZM4232.9 848.101C4248.71 848.101 4262.39 852.357 4273.94 860.869 4285.49 869.381 4291.27 882.453 4291.27 900.085 4291.27 909.205 4289.59 917.869 4286.25 926.077 4282.91 934.285 4276.67 947.813 4267.55 966.661L4257.52 986.725C4255.7 990.373 4252.96 995.693 4249.31 1002.69 4245.67 1009.68 4243.84 1014.09 4243.84 1015.91 4259.04 1005.57 4276.98 991.893 4297.65 974.869 4328.05 950.549 4352.98 931.701 4372.43 918.325 4391.89 904.949 4406.18 898.261 4415.3 898.261 4423.2 898.261 4434.3 902.669 4448.59 911.485 4462.87 920.301 4471.23 928.357 4473.67 935.653 4473.67 939.909 4473.21 946.293 4472.3 954.805 4471.39 963.317 4470.63 970.917 4470.02 977.605L4470.93 1005.88C4471.54 1010.74 4471.84 1018.04 4471.84 1027.77 4471.84 1047.22 4470.63 1060.9 4468.19 1068.81 4468.8 1069.41 4469.41 1070.33 4470.02 1071.54 4470.63 1072.76 4470.93 1073.67 4470.93 1074.28L4470.02 1076.1C4470.63 1082.18 4473.97 1091.91 4480.05 1105.29 4486.13 1118.66 4489.17 1125.96 4489.17 1127.17 4489.17 1133.86 4484.76 1141.31 4475.95 1149.52 4467.13 1157.73 4458.77 1162.44 4450.87 1163.65 4412.56 1162.44 4393.41 1140.85 4393.41 1098.9 4393.41 1087.35 4394.32 1076.1 4396.15 1065.16 4397.36 1051.78 4397.97 1042.36 4397.97 1036.89L4397.97 1032.33 4397.97 1022.29C4396.15 1010.13 4392.19 1004.05 4386.11 1004.05 4375.17 1004.05 4354.95 1014.54 4325.47 1035.52 4295.98 1056.49 4265.12 1081.57 4232.9 1110.76 4223.17 1121.09 4214.96 1130.82 4208.27 1139.94 4202.19 1147.85 4197.63 1152.71 4194.59 1154.53 4191.55 1156.36 4186.69 1157.27 4180 1157.27 4171.49 1156.05 4161.76 1149.67 4150.82 1138.12 4139.87 1126.57 4132.58 1116.23 4128.93 1107.11 4128.93 1090.09 4131.97 1073.82 4138.05 1058.32 4144.13 1042.81 4153.25 1023.21 4165.41 999.493 4170.88 981.253 4177.87 963.013 4186.39 944.773 4195.51 923.493 4202.04 907.229 4205.99 895.981 4209.95 884.733 4212.53 873.029 4213.75 860.869 4213.75 860.261 4213.59 859.957 4213.29 859.957 4212.99 859.957 4212.83 859.957 4212.83 859.957 4212.83 857.525 4213.75 855.397 4215.57 853.573 4217.39 851.749 4219.52 850.837 4221.95 850.837 4223.17 849.013 4226.82 848.101 4232.9 848.101ZM1248.9 848.101C1264.71 848.101 1278.39 852.357 1289.94 860.869 1301.49 869.381 1307.27 882.453 1307.27 900.085 1307.27 909.205 1305.59 917.869 1302.25 926.077 1298.91 934.285 1292.67 947.813 1283.55 966.661L1273.52 986.725C1271.7 990.373 1268.96 995.693 1265.31 1002.69 1261.67 1009.68 1259.84 1014.09 1259.84 1015.91 1275.04 1005.57 1292.98 991.893 1313.65 974.869 1344.05 950.549 1368.98 931.701 1388.43 918.325 1407.89 904.949 1422.18 898.261 1431.3 898.261 1439.2 898.261 1450.3 902.669 1464.59 911.485 1478.87 920.301 1487.23 928.357 1489.67 935.653 1489.67 939.909 1489.21 946.293 1488.3 954.805 1487.39 963.317 1486.63 970.917 1486.02 977.605L1486.93 1005.88C1487.54 1010.74 1487.84 1018.04 1487.84 1027.77 1487.84 1047.22 1486.63 1060.9 1484.19 1068.81 1484.8 1069.41 1485.41 1070.33 1486.02 1071.54 1486.63 1072.76 1486.93 1073.67 1486.93 1074.28L1486.02 1076.1C1486.63 1082.18 1489.97 1091.91 1496.05 1105.29 1502.13 1118.66 1505.17 1125.96 1505.17 1127.17 1505.17 1133.86 1500.76 1141.31 1491.95 1149.52 1483.13 1157.73 1474.77 1162.44 1466.87 1163.65 1428.56 1162.44 1409.41 1140.85 1409.41 1098.9 1409.41 1087.35 1410.32 1076.1 1412.15 1065.16 1413.36 1051.78 1413.97 1042.36 1413.97 1036.89L1413.97 1032.33 1413.97 1022.29C1412.15 1010.13 1408.19 1004.05 1402.11 1004.05 1391.17 1004.05 1370.95 1014.54 1341.47 1035.52 1311.98 1056.49 1281.12 1081.57 1248.9 1110.76 1239.17 1121.09 1230.96 1130.82 1224.27 1139.94 1218.19 1147.85 1213.63 1152.71 1210.59 1154.53 1207.55 1156.36 1202.69 1157.27 1196 1157.27 1187.49 1156.05 1177.76 1149.67 1166.82 1138.12 1155.87 1126.57 1148.58 1116.23 1144.93 1107.11 1144.93 1090.09 1147.97 1073.82 1154.05 1058.32 1160.13 1042.81 1169.25 1023.21 1181.41 999.493 1186.88 981.253 1193.87 963.013 1202.39 944.773 1211.51 923.493 1218.04 907.229 1221.99 895.981 1225.95 884.733 1228.53 873.029 1229.75 860.869 1229.75 860.261 1229.59 859.957 1229.29 859.957 1228.99 859.957 1228.83 859.957 1228.83 859.957 1228.83 857.525 1229.75 855.397 1231.57 853.573 1233.39 851.749 1235.52 850.837 1237.95 850.837 1239.17 849.013 1242.82 848.101 1248.9 848.101ZM2323.39 839.893C2330.69 839.893 2337.23 841.869 2343 845.821 2348.78 849.773 2351.97 855.397 2352.58 862.693 2356.23 866.341 2358.05 875.157 2358.05 889.141 2358.05 899.477 2357.14 909.509 2355.31 919.237 2353.49 928.965 2351.06 935.957 2348.02 940.213 2346.19 943.861 2343.46 961.493 2339.81 993.109 2337.38 1016.21 2335.55 1031.11 2334.34 1037.8 2333.73 1040.23 2333.43 1043.57 2333.43 1047.83 2333.43 1055.73 2335.55 1059.69 2339.81 1059.69 2348.93 1059.69 2365.65 1041.75 2389.97 1005.88 2406.39 981.557 2417.18 964.077 2422.35 953.437 2427.51 942.797 2434.05 926.533 2441.95 904.645 2448.03 885.797 2453.51 873.637 2458.37 868.165 2464.45 859.653 2472.96 855.397 2483.91 855.397 2494.24 855.397 2503.97 858.741 2513.09 865.429 2522.21 874.549 2526.77 886.405 2526.77 900.997 2526.77 911.941 2523.73 923.493 2517.65 935.653 2510.35 950.853 2503.67 969.397 2497.59 991.285 2491.51 1013.17 2488.47 1031.11 2488.47 1045.09 2488.47 1056.04 2489.83 1062.88 2492.57 1065.61 2495.31 1068.35 2499.71 1069.72 2505.79 1069.72 2512.48 1069.72 2519.02 1067.29 2525.4 1062.42 2531.79 1057.56 2541.97 1048.13 2555.95 1034.15 2566.29 1023.81 2580.58 1004.36 2598.82 975.781 2617.06 947.205 2626.18 930.181 2626.18 924.709 2626.18 921.061 2628.91 915.893 2634.39 909.205 2637.43 904.949 2640.31 901.301 2643.05 898.261 2645.79 895.221 2649.89 892.181 2655.36 889.141 2659.01 887.925 2662.05 887.317 2664.48 887.317 2672.99 887.317 2680.59 890.661 2687.28 897.349 2689.71 899.781 2691.84 905.557 2693.67 914.677 2695.49 923.797 2696.4 932.309 2696.4 940.213 2683.63 987.637 2673.6 1015.3 2666.31 1023.21 2654.75 1032.33 2645.03 1043.57 2637.12 1056.95 2622.53 1074.58 2611.13 1086.89 2602.92 1093.89 2594.71 1100.88 2589.39 1105.59 2586.96 1108.02 2573.59 1121.4 2558.08 1132.04 2540.45 1139.94 2522.82 1147.85 2506.4 1151.8 2491.2 1151.8 2479.04 1151.8 2469.31 1149.06 2462.02 1143.59 2443.17 1133.86 2433.75 1117.45 2433.75 1094.34 2433.75 1090.09 2433.14 1086.13 2431.92 1082.49 2430.71 1078.84 2429.79 1076.41 2429.19 1075.19 2420.07 1075.19 2412.77 1080.05 2407.3 1089.78 2398.79 1104.37 2383.13 1119.42 2360.33 1134.93 2337.53 1150.43 2320.35 1158.18 2308.8 1158.18 2299.68 1158.18 2290.56 1151.34 2281.44 1137.66 2272.32 1123.98 2265.18 1106.96 2260.01 1086.59 2254.84 1066.22 2252.87 1046.61 2254.08 1027.77 2254.08 1005.88 2255.6 987.637 2258.64 973.045 2261.68 958.453 2263.51 949.333 2264.11 945.685 2265.33 942.645 2266.55 937.325 2267.76 929.725 2268.98 922.125 2271.41 911.333 2275.06 897.349 2279.31 879.717 2284.18 866.645 2289.65 858.133 2298.16 845.973 2309.41 839.893 2323.39 839.893ZM4734.89 823.477C4741.58 823.477 4746.44 824.085 4749.48 825.301 4759.21 826.517 4766.81 828.645 4772.28 831.685 4777.75 834.725 4786.87 841.717 4799.64 852.661 4828.83 881.845 4845.85 902.517 4850.71 914.677 4853.15 919.541 4854.36 925.621 4854.36 932.917 4854.36 946.901 4849.8 959.973 4840.68 972.133 4838.86 975.173 4835.51 979.885 4830.65 986.269 4825.79 992.653 4821.53 999.189 4817.88 1005.88 4814.23 1012.57 4811.5 1020.17 4809.67 1028.68 4807.85 1040.23 4804.35 1054.06 4799.19 1070.17 4794.02 1086.29 4790.52 1097.08 4788.7 1102.55 4783.83 1115.32 4778.36 1132.34 4772.28 1153.62L4757.69 1210.17C4744.31 1256.37 4728.81 1292.09 4711.18 1317.33 4693.55 1342.56 4677.13 1359.43 4661.93 1367.94 4654.03 1370.98 4646.43 1372.5 4639.13 1372.5 4625.75 1372.5 4611.92 1368.09 4597.63 1359.28 4583.35 1350.46 4571.03 1338.45 4560.7 1323.25 4554.01 1314.13 4545.5 1296.96 4535.16 1271.73 4524.83 1246.49 4521.48 1232.97 4525.13 1231.14 4527.56 1222.63 4536.38 1218.37 4551.58 1218.37 4558.87 1218.37 4565.56 1219.44 4571.64 1221.57 4577.72 1223.69 4581.07 1226.28 4581.67 1229.32 4587.15 1245.13 4593.83 1257.29 4601.74 1265.8 4606.6 1273.7 4611.92 1279.78 4617.7 1284.04 4623.47 1288.29 4629.1 1290.42 4634.57 1290.42 4638.22 1290.42 4640.65 1289.81 4641.87 1288.6 4651.59 1281.3 4659.04 1272.49 4664.21 1262.15 4669.38 1251.81 4676.52 1232.66 4685.64 1204.69 4699.63 1156.05 4710.57 1121.4 4718.47 1100.73 4720.3 1094.04 4723.34 1086.44 4727.59 1077.93L4711.18 1090.69C4705.1 1095.56 4698.41 1100.57 4691.11 1105.74 4683.82 1110.91 4675.91 1115.32 4667.4 1118.97 4663.15 1124.44 4652.51 1127.17 4635.48 1127.17 4622.71 1127.17 4610.55 1125.35 4599 1121.7 4587.45 1115.62 4578.79 1108.63 4573.01 1100.73 4567.23 1092.82 4561.31 1080.97 4555.23 1065.16 4552.79 1060.29 4551.58 1052.69 4551.58 1042.36 4551.58 1016.21 4557.66 988.245 4569.82 958.453 4581.37 934.741 4599.61 909.509 4624.54 882.757 4649.47 856.005 4671.05 839.893 4689.29 834.421 4703.88 827.125 4719.08 823.477 4734.89 823.477ZM951.339 823.477C965.931 823.477 978.395 827.733 988.731 836.245L1013.35 857.221C1031.59 872.421 1041.93 881.237 1044.36 883.669L1078.11 913.765 1062.6 959.365C1057.13 975.781 1054.39 991.285 1054.39 1005.88 1054.39 1028.98 1060.78 1050.57 1073.55 1070.63 1076.59 1077.32 1080.69 1082.49 1085.86 1086.13 1091.03 1089.78 1097.87 1092.21 1106.38 1093.43 1119.75 1095.86 1126.44 1102.55 1126.44 1113.49 1126.44 1126.87 1124.01 1136.9 1119.15 1143.59 1114.28 1150.28 1108.51 1154.53 1101.82 1156.36 1092.09 1157.57 1085.4 1158.18 1081.75 1158.18 1064.12 1158.18 1048.01 1153.62 1033.42 1144.5 1018.83 1135.38 1006.06 1119.88 995.115 1097.99 992.683 1094.34 989.491 1087.65 985.539 1077.93 981.587 1068.2 979.307 1061.51 978.699 1057.86 974.443 1063.94 967.451 1071.85 957.723 1081.57 895.099 1144.81 844.331 1176.42 805.419 1176.42 792.043 1176.42 780.187 1173.08 769.851 1166.39 768.027 1162.74 762.859 1157.88 754.347 1151.8 745.835 1145.72 741.579 1142.07 741.579 1140.85 741.579 1138.42 740.211 1134.93 737.475 1130.37 734.739 1125.81 732.155 1121.7 729.723 1118.05 724.859 1113.19 728.203 1097.38 739.755 1070.63 751.307 1043.88 766.811 1012.26 786.267 975.781 789.915 972.133 794.627 965.749 800.403 956.629 806.179 947.509 809.979 942.341 811.803 941.125 811.803 938.693 812.715 936.413 814.539 934.285 816.363 932.157 818.491 931.093 820.923 931.093L828.219 916.501C830.651 911.029 842.507 897.957 863.787 877.285 885.067 856.613 901.787 842.629 913.947 835.333 925.499 827.429 937.963 823.477 951.339 823.477ZM-200.637 823.477C-175.709 823.477-155.493 828.037-139.989 837.157-124.485 846.277-113.541 856.613-107.157 868.165-100.773 879.717-97.5811 889.749-97.5811 898.261L-97.5811 902.821-97.5811 905.557C-97.5811 912.853-101.837 926.229-110.349 945.685-118.861 965.141-132.389 983.381-150.933 1000.41-169.477 1017.43-193.341 1026.85-222.525 1028.68-237.117 1028.68-251.253 1027.31-264.933 1024.57-278.613 1021.84-287.277 1020.47-290.925 1020.47-300.045 1020.47-305.821 1023.81-308.253 1030.5-310.685 1037.19-311.901 1048.44-311.901 1064.25-310.077 1081.27-305.365 1093.13-297.765 1099.81-290.165 1106.5-279.069 1109.85-264.477 1109.85-257.181 1109.85-248.669 1107.72-238.941 1103.46-229.213 1098.6-217.661 1091-204.285 1080.66-196.989 1074.58-191.213 1070.33-186.957 1067.89-182.701 1065.46-177.533 1064.25-171.453 1064.25-165.981 1064.25-159.597 1067.89-152.301 1075.19-145.005 1082.49-141.053 1089.48-140.445 1096.17-141.661 1103.46-148.349 1114.41-160.509 1129-172.669 1143.59-188.477 1156.66-207.933 1168.21-227.389 1179.77-248.365 1185.54-270.861 1185.54-305.517 1185.54-333.485 1175.81-354.765 1156.36-376.045 1136.9-386.685 1109.24-386.685 1073.37-386.685 1059.38-385.773 1043.88-383.949 1026.85-382.733 1012.26-376.805 992.197-366.165 966.661-355.525 941.125-340.933 916.197-322.389 891.877-303.845 867.557-282.109 849.621-257.181 838.069-245.629 832.597-235.901 828.797-227.997 826.669-220.093 824.541-210.973 823.477-200.637 823.477ZM3388.57 822.565C3400.73 825.605 3412.13 829.861 3422.77 835.333 3433.41 840.805 3438.73 846.885 3438.73 853.573L3443.29 858.133C3447.55 858.133 3452.56 864.821 3458.34 878.197 3464.11 891.573 3467 903.733 3467 914.677 3467 920.149 3466.09 924.709 3464.27 928.357 3461.83 939.909 3457.12 951.157 3450.13 962.101 3443.14 973.045 3437.21 978.517 3432.35 978.517 3425.66 978.517 3422.31 980.341 3422.31 983.989 3422.31 987.029 3418.67 988.549 3411.37 988.549 3405.29 988.549 3398.91 987.181 3392.22 984.445 3385.53 981.709 3381.58 978.213 3380.36 973.957 3380.36 970.917 3382.79 958.757 3387.66 937.477 3389.48 928.357 3390.39 920.757 3390.39 914.677 3390.39 903.733 3386.75 898.261 3379.45 898.261 3377.63 898.261 3373.07 899.477 3365.77 901.909 3349.96 910.421 3337.35 920.301 3327.92 931.549 3318.5 942.797 3310.14 958.149 3302.84 977.605 3295.55 997.061 3287.03 1025.33 3277.31 1062.42 3275.48 1069.72 3274.57 1076.41 3274.57 1082.49 3274.57 1089.78 3275.48 1095.71 3277.31 1100.27 3279.13 1104.83 3280.95 1107.41 3282.78 1108.02 3285.82 1109.24 3291.29 1109.85 3299.19 1109.85 3314.39 1109.85 3326.55 1107.11 3335.67 1101.64 3346.62 1095.56 3357.26 1088.72 3367.59 1081.12 3377.93 1073.52 3384.31 1068.81 3386.75 1066.98 3387.96 1065.77 3390.39 1062.27 3394.04 1056.49 3397.69 1050.72 3401.64 1046.92 3405.9 1045.09 3409.55 1039.62 3414.11 1036.28 3419.58 1035.06 3425.05 1033.85 3430.52 1033.24 3435.99 1033.24 3441.47 1033.24 3445.11 1033.24 3446.94 1033.24 3454.84 1035.67 3462.44 1041.14 3469.74 1049.65 3477.03 1058.17 3478.25 1063.64 3473.39 1066.07 3471.56 1066.07 3470.35 1066.68 3469.74 1067.89 3469.13 1069.11 3468.83 1070.02 3468.83 1070.63 3470.04 1073.67 3465.18 1081.73 3454.23 1094.8 3443.29 1107.87 3431.13 1120.33 3417.75 1132.19 3404.38 1144.05 3395.26 1149.97 3390.39 1149.97 3387.96 1149.97 3385.83 1150.28 3384.01 1150.89 3382.19 1151.49 3381.27 1153.01 3381.27 1155.45 3381.27 1157.88 3372 1163.5 3353.46 1172.32 3334.91 1181.13 3319.87 1186.76 3308.31 1189.19 3301.02 1190.41 3295.24 1191.01 3290.99 1191.01 3266.06 1191.01 3244.02 1182.96 3224.87 1166.85 3205.71 1150.73 3196.14 1130.21 3196.14 1105.29L3195.23 1090.69C3195.23 1062.12 3201.61 1028.98 3214.38 991.285 3227.15 953.589 3242.95 922.885 3261.8 899.173 3277 881.541 3290.07 867.253 3301.02 856.309 3311.96 845.365 3321.99 838.069 3331.11 834.421 3339.02 831.381 3349.05 828.645 3361.21 826.213 3373.37 823.781 3382.49 822.565 3388.57 822.565ZM35.9628 821.653C48.1229 821.653 56.6348 824.085 61.4988 828.949 66.3629 832.597 68.7948 838.677 68.7948 847.189 68.7948 861.173 59.9789 885.797 42.3468 921.061L33.2269 940.213C28.9708 948.117 25.4749 955.413 22.7388 962.101 20.0029 968.789 20.1548 971.829 23.1949 971.221 29.8828 959.669 46.1468 943.861 71.9869 923.797 97.8269 903.733 115.611 891.269 125.339 886.405 129.595 883.973 135.067 881.541 141.755 879.109 148.443 876.677 153.003 874.853 155.435 873.637 166.379 868.165 178.843 865.429 192.827 865.429 202.555 865.429 210.915 866.797 217.907 869.533 224.899 872.269 229.611 876.373 232.043 881.845 232.651 886.101 234.323 889.445 237.059 891.877 239.795 894.309 241.771 895.829 242.987 896.437 244.811 896.437 246.027 897.197 246.635 898.717 247.243 900.237 247.547 901.301 247.547 901.909 247.547 906.773 243.291 913.005 234.779 920.605 226.267 928.205 217.451 932.309 208.331 932.917 201.643 933.525 194.651 935.045 187.355 937.477 180.059 939.909 172.763 942.949 165.467 946.597L141.755 960.277C121.083 970.613 103.603 980.797 89.3149 990.829 75.0269 1000.86 60.5869 1013.78 45.9948 1029.59 42.9548 1032.63 38.5469 1036.89 32.7708 1042.36 26.9949 1047.83 21.9788 1054.21 17.7228 1061.51 13.4668 1065.77 9.0589 1076.86 4.49884 1094.8-0.0611572 1112.73-2.34119 1123.83-2.34119 1128.09-2.94922 1129.91-4.1651 1133.56-5.9892 1139.03-7.81317 1144.5-10.5492 1149.37-14.1971 1153.62-19.6691 1160.31-24.2292 1165.17-27.8772 1168.21-31.5251 1171.25-35.4772 1172.77-39.7332 1172.77-45.8132 1172.77-52.8052 1168.82-60.7092 1160.92-69.2211 1154.23-75.9091 1147.85-80.7732 1141.77-85.6371 1135.69-87.1572 1127.17-85.3332 1116.23-83.5092 1095.56-78.9491 1071.54-71.6532 1044.18L-67.0931 1025.94C-65.2692 1009.53-55.6931 977.149-38.3651 928.813-21.0372 880.477-6.59711 847.797 4.9549 830.773 11.0349 824.693 21.3709 821.653 35.9628 821.653ZM475.227 799.765C486.779 799.765 494.683 800.981 498.939 803.413L506.235 801.589C513.531 801.589 522.955 807.669 534.507 819.829 546.059 831.989 553.355 841.717 556.395 849.013 556.395 869.077 555.787 885.189 554.571 897.349 553.355 909.509 550.315 915.589 545.451 915.589 544.843 915.589 543.931 915.893 542.715 916.501 541.499 917.109 540.891 918.629 540.891 921.061 540.891 929.573 533.443 938.997 518.547 949.333 503.651 959.669 490.123 964.837 477.963 964.837L474.315 963.925C470.667 963.317 465.347 959.669 458.355 952.981 451.363 946.293 447.867 939.605 447.867 932.917 447.867 931.093 451.515 926.229 458.811 918.325 466.107 910.421 472.339 902.669 477.507 895.069 482.675 887.469 485.259 879.413 485.259 870.901 485.259 867.861 484.195 865.885 482.067 864.973 479.939 864.061 475.835 863.605 469.755 863.605 436.315 878.805 412.299 893.093 397.707 906.469 395.883 910.117 394.211 912.853 392.691 914.677 391.171 916.501 389.195 917.413 386.763 917.413 386.763 917.413 386.763 917.261 386.763 916.957 386.763 916.653 386.459 916.501 385.851 916.501 384.635 916.501 380.683 919.997 373.995 926.989 367.307 933.981 361.075 942.037 355.299 951.157 349.523 960.277 346.027 968.789 344.811 976.693L342.987 979.429 342.987 983.989C342.379 985.205 342.075 987.637 342.075 991.285 342.075 996.757 344.507 1002.38 349.371 1008.16 354.235 1013.93 363.963 1021.99 378.555 1032.33 405.915 1053 424.611 1068.35 434.643 1078.38 444.675 1088.41 450.907 1097.38 453.339 1105.29 458.811 1116.23 461.547 1125.96 461.547 1134.47 461.547 1155.14 450.755 1171.1 429.171 1182.35 407.587 1193.6 378.251 1199.22 341.163 1199.22 326.571 1199.22 311.523 1196.18 296.019 1190.1 280.515 1184.02 267.443 1176.57 256.803 1167.76 246.163 1158.94 240.843 1150.89 240.843 1143.59 240.843 1136.29 244.187 1131.73 250.875 1129.91L255.435 1126.26C256.651 1125.65 259.083 1125.35 262.731 1125.35 265.163 1124.74 268.203 1124.89 271.851 1125.81 275.499 1126.72 278.539 1127.17 280.971 1127.17 285.227 1128.39 291.611 1129.61 300.123 1130.82L323.835 1133.56C335.995 1133.56 347.395 1132.34 358.035 1129.91 368.675 1127.48 373.995 1124.74 373.995 1121.7 373.995 1119.88 371.563 1116.84 366.699 1112.58 361.835 1108.33 356.667 1106.2 351.195 1106.2 351.195 1103.77 341.771 1095.56 322.923 1081.57 312.587 1073.67 302.707 1065.77 293.283 1057.86 283.859 1049.96 279.147 1044.18 279.147 1040.53L280.059 1038.71 280.059 1034.15C275.803 1034.15 271.851 1028.37 268.203 1016.82 264.555 1005.27 262.731 994.021 262.731 983.077 262.731 962.405 271.851 939.605 290.091 914.677 308.331 889.749 330.979 867.253 358.035 847.189 385.091 827.125 410.779 813.445 435.099 806.149 444.219 801.893 457.595 799.765 475.227 799.765ZM4097.76 683.941C4105.67 683.941 4114.33 686.677 4123.75 692.149 4133.18 697.621 4140.32 704.005 4145.19 711.301 4149.44 721.029 4151.57 729.541 4151.57 736.837 4151.57 751.429 4144.58 767.541 4130.59 785.173 4124.51 793.077 4117.22 799.157 4108.71 803.413 4100.19 807.669 4091.68 809.797 4083.17 809.797 4074.66 809.797 4067.67 807.973 4062.19 804.325 4056.11 800.069 4051.25 794.597 4047.6 787.909 4043.95 781.221 4041.83 774.837 4041.22 768.757 4040.61 762.677 4041.22 759.029 4043.04 757.813 4046.69 753.557 4050.34 747.781 4053.99 740.485 4057.63 733.189 4060.37 728.021 4062.19 724.981 4067.06 714.037 4071.01 706.133 4074.05 701.269 4078.31 692.757 4082.26 688.197 4085.91 687.589 4090.77 685.157 4094.72 683.941 4097.76 683.941ZM2853.76 683.941C2861.67 683.941 2870.33 686.677 2879.75 692.149 2889.18 697.621 2896.32 704.005 2901.19 711.301 2905.44 721.029 2907.57 729.541 2907.57 736.837 2907.57 751.429 2900.58 767.541 2886.59 785.173 2880.51 793.077 2873.22 799.157 2864.71 803.413 2856.19 807.669 2847.68 809.797 2839.17 809.797 2830.66 809.797 2823.67 807.973 2818.19 804.325 2812.11 800.069 2807.25 794.597 2803.6 787.909 2799.95 781.221 2797.83 774.837 2797.22 768.757 2796.61 762.677 2797.22 759.029 2799.04 757.813 2802.69 753.557 2806.34 747.781 2809.99 740.485 2813.63 733.189 2816.37 728.021 2818.19 724.981 2823.06 714.037 2827.01 706.133 2830.05 701.269 2834.31 692.757 2838.26 688.197 2841.91 687.589 2846.77 685.157 2850.72 683.941 2853.76 683.941ZM705.763 683.941C713.667 683.941 722.331 686.677 731.755 692.149 741.179 697.621 748.323 704.005 753.187 711.301 757.443 721.029 759.571 729.541 759.571 736.837 759.571 751.429 752.579 767.541 738.595 785.173 732.515 793.077 725.219 799.157 716.707 803.413 708.195 807.669 699.683 809.797 691.171 809.797 682.659 809.797 675.667 807.973 670.195 804.325 664.115 800.069 659.251 794.597 655.603 787.909 651.955 781.221 649.827 774.837 649.219 768.757 648.611 762.677 649.219 759.029 651.043 757.813 654.691 753.557 658.339 747.781 661.987 740.485 665.635 733.189 668.371 728.021 670.195 724.981 675.059 714.037 679.011 706.133 682.051 701.269 686.307 692.757 690.259 688.197 693.907 687.589 698.771 685.157 702.723 683.941 705.763 683.941ZM3094.78 674.821C3105.72 674.821 3114.54 677.861 3121.23 683.941 3126.7 692.453 3129.43 698.837 3129.43 703.093 3129.43 707.957 3127 714.341 3122.14 722.245 3118.49 729.541 3112.41 739.269 3103.9 751.429 3096.6 762.373 3091.13 771.189 3087.48 777.877 3081.4 785.781 3078.36 791.861 3078.36 796.117 3078.36 800.373 3082.31 802.501 3090.22 802.501 3098.73 802.501 3113.02 800.677 3133.08 797.029 3136.12 796.421 3140.38 796.117 3145.85 796.117 3160.44 796.117 3170.78 800.373 3176.86 808.885 3182.94 817.397 3185.98 828.037 3185.98 840.805 3185.98 849.317 3183.09 854.485 3177.31 856.309 3171.54 858.133 3158.62 859.045 3138.55 859.045 3119.1 862.085 3099.03 863.605 3078.36 863.605 3074.71 863.605 3070.61 863.757 3066.05 864.061 3061.49 864.365 3056.78 865.125 3051.91 866.341 3047.05 867.557 3043.55 869.381 3041.43 871.813 3039.3 874.245 3037.02 878.197 3034.59 883.669 3032.76 885.493 3028.51 892.485 3021.82 904.645 3013.31 922.277 3007.83 932.917 3005.4 936.565 2989.59 982.773 2977.43 1030.5 2968.92 1079.75 2968.31 1083.4 2968.01 1087.96 2968.01 1093.43 2968.01 1101.33 2970.59 1106.96 2975.76 1110.3 2980.93 1113.65 2991.11 1115.32 3006.31 1115.32 3023.34 1115.32 3039.45 1113.19 3054.65 1108.93 3072.89 1101.03 3086.57 1094.34 3095.69 1088.87 3101.16 1085.83 3106.18 1082.94 3110.74 1080.21 3115.3 1077.47 3118.49 1075.49 3120.31 1074.28 3122.75 1069.41 3126.85 1070.02 3132.63 1076.1 3138.4 1082.18 3142.81 1089.17 3145.85 1097.08 3145.85 1108.02 3143.72 1117.9 3139.47 1126.72 3135.21 1135.53 3124.57 1144.81 3107.55 1154.53 3088.09 1166.69 3068.03 1175.51 3047.35 1180.98 3026.68 1186.45 3007.23 1189.19 2988.99 1189.19 2978.65 1189.19 2969.23 1188.28 2960.71 1186.45 2950.99 1184.63 2940.04 1176.88 2927.88 1163.2 2915.72 1149.52 2908.12 1137.81 2905.08 1128.09 2905.08 1126.87 2904.47 1125.5 2903.26 1123.98 2902.04 1122.46 2901.13 1121.4 2900.52 1120.79 2898.09 1118.97 2896.87 1108.93 2896.87 1090.69 2896.87 1076.1 2897.63 1060.9 2899.15 1045.09 2900.67 1029.29 2902.65 1016.52 2905.08 1006.79L2921.5 958.453 2934.27 921.973 2958.89 869.077 2922.41 859.045C2918.15 858.437 2914.66 856.309 2911.92 852.661 2909.19 849.013 2907.82 845.669 2907.82 842.629 2907.82 837.765 2910.4 830.773 2915.57 821.653 2920.74 812.533 2924.84 807.973 2927.88 807.973 2929.71 808.581 2934.57 808.885 2942.47 808.885 2960.71 808.885 2974.39 807.973 2983.51 806.149 2989.59 803.717 2993.85 798.853 2996.28 791.557 2999.32 784.869 3002.36 779.245 3005.4 774.685 3008.44 770.125 3011.48 765.109 3014.52 759.637 3016.35 755.989 3019.23 750.365 3023.19 742.765 3027.14 735.165 3032.15 726.501 3038.23 716.773 3039.45 714.949 3042.19 710.541 3046.44 703.549 3050.7 696.557 3055.87 690.629 3061.95 685.765 3065.59 682.725 3070.46 680.141 3076.54 678.013 3082.62 675.885 3088.7 674.821 3094.78 674.821ZM-526.405 646.549C-530.661 646.549-537.653 647.157-547.381 648.373-557.109 651.413-563.949 655.517-567.901 660.685-571.853 665.853-577.477 677.557-584.773 695.797-604.229 732.885-616.997 759.637-623.077 776.053-634.629 817.397-644.661 849.165-653.173 871.357-661.685 893.549-666.549 906.469-667.765 910.117L-667.765 913.765C-667.765 917.413-668.069 921.061-668.677 924.709-669.285 928.357-668.677 931.093-666.853 932.917-665.637 934.133-662.293 934.741-656.821 934.741-641.013 934.741-620.341 929.877-594.805 920.149-572.917 912.853-548.597 900.997-521.845 884.581-508.469 875.461-492.661 859.349-474.421 836.245-470.773 830.165-463.477 815.877-452.533 793.381-447.669 784.869-442.957 773.925-438.397 760.549-433.837 747.173-431.557 735.317-431.557 724.981-431.557 720.117-431.861 716.469-432.469 714.037-438.549 682.421-456.181 661.445-485.365 651.109-504.821 648.069-518.501 646.549-526.405 646.549ZM3707.71 582.709C3717.44 582.709 3726.87 589.093 3735.99 601.861 3745.11 614.629 3749.97 628.005 3750.58 641.989 3750.58 649.285 3749.06 655.973 3746.02 662.053 3732.03 692.453 3714.71 739.573 3694.03 803.413 3684.91 830.165 3675.79 855.549 3666.67 879.565 3657.55 903.581 3650.26 920.757 3644.79 931.093L3634.75 951.157 3621.99 999.493C3621.99 1001.32 3621.68 1002.84 3621.07 1004.05 3620.47 1005.27 3620.16 1006.18 3620.16 1006.79 3620.16 1008.61 3620.47 1009.53 3621.07 1009.53L3636.58 994.021C3654.21 976.389 3675.19 958.453 3699.51 940.213 3719.57 926.229 3729.91 918.325 3730.51 916.501 3731.12 914.677 3733.55 911.941 3737.81 908.293L3746.93 900.997C3766.39 887.013 3787.36 880.021 3809.86 880.021 3816.55 880.021 3824.45 883.365 3833.57 890.053 3842.69 896.741 3850.44 906.013 3856.83 917.869 3863.21 929.725 3866.4 942.341 3866.4 955.717L3866.4 963.013 3866.4 969.397C3866.4 984.597 3863.51 1004.51 3857.74 1029.13 3851.96 1053.76 3848.77 1067.89 3848.16 1071.54 3851.2 1071.54 3855.76 1070.93 3861.84 1069.72 3870.96 1069.72 3877.5 1070.63 3881.45 1072.45 3885.4 1074.28 3888.9 1076.71 3891.94 1079.75 3894.98 1082.79 3897.71 1084.61 3900.15 1085.22 3901.36 1086.44 3901.97 1088.26 3901.97 1090.69 3901.97 1104.68 3894.37 1116.84 3879.17 1127.17 3863.97 1137.51 3849.38 1143.29 3835.39 1144.5 3818.37 1144.5 3804.69 1138.12 3794.35 1125.35 3784.02 1112.58 3778.85 1097.08 3778.85 1078.84 3778.85 1071.54 3779.15 1064.25 3779.76 1056.95 3780.37 1049.65 3780.98 1043.27 3781.59 1037.8 3783.41 1025.64 3784.32 1015.91 3784.32 1008.61 3784.32 1000.71 3783.56 995.389 3782.04 992.653 3780.52 989.917 3777.94 988.549 3774.29 988.549 3762.13 988.549 3741 999.645 3710.91 1021.84 3680.81 1044.03 3650.26 1072.76 3619.25 1108.02 3599.79 1136.6 3581.25 1150.89 3563.62 1150.89 3552.67 1149.06 3542.64 1142.98 3533.52 1132.65 3524.4 1122.31 3519.84 1110.45 3519.84 1097.08 3519.84 1082.49 3528.96 1045.09 3547.2 984.901 3550.24 969.093 3556.93 948.725 3567.27 923.797 3570.91 913.461 3573.04 907.381 3573.65 905.557 3584.59 869.077 3599.49 824.389 3618.34 771.493L3626.55 749.605C3647.83 691.845 3660.59 656.581 3664.85 643.813L3679.44 603.685C3679.44 598.821 3682.94 594.109 3689.93 589.549 3696.92 584.989 3702.85 582.709 3707.71 582.709ZM-585.685 565.381C-578.997 565.381-567.141 565.989-550.117 567.205-542.821 567.813-523.365 568.117-491.749 568.117-488.101 569.941-481.413 572.677-471.685 576.325-451.013 584.837-440.677 590.005-440.677 591.829-440.677 594.869-439.613 596.997-437.485 598.213-435.357 599.429-432.165 600.341-427.909 600.949-421.221 600.949-409.213 609.157-391.885 625.573-374.557 641.989-362.549 657.189-355.861 671.173-350.389 682.117-346.589 690.629-344.461 696.709-342.333 702.789-341.269 710.389-341.269 719.509-341.269 723.157-341.877 729.845-343.093 739.573-344.309 749.301-345.829 758.725-347.653 767.845-349.477 776.965-351.605 782.741-354.037 785.173-363.765 792.469-368.629 798.853-368.629 804.325-368.629 810.405-377.445 827.429-395.077 855.397-412.709 883.365-428.213 903.733-441.589 916.501-457.397 934.741-476.245 950.853-498.133 964.837-523.669 976.389-552.397 986.421-584.317 994.933-616.237 1003.45-640.405 1007.4-656.821 1006.79-676.277 1009.83-688.285 1012.41-692.845 1014.54-697.405 1016.67-700.901 1021.69-703.333 1029.59-706.373 1038.1-709.261 1046.61-711.997 1055.13-714.733 1063.64-716.101 1069.41-716.101 1072.45-719.749 1079.14-727.197 1099.51-738.445 1133.56-749.693 1167.61-757.445 1193.75-761.701 1211.99-764.133 1219.89-768.997 1226.13-776.293 1230.69-783.589 1235.25-790.277 1237.53-796.357 1237.53-799.397 1237.53-802.589 1236.46-805.933 1234.33-809.277 1232.21-812.165 1229.32-814.597 1225.67-819.461 1221.41-823.413 1216.25-826.453 1210.17-829.493 1204.09-831.013 1194.97-831.013 1182.81-831.013 1161.53-824.325 1130.82-810.949 1090.69-806.693 1073.67-802.133 1057.25-797.269 1041.45-793.013 1030.5-790.885 1022.29-790.885 1016.82-790.885 1011.96-790.125 1006.33-788.605 999.949-787.085 993.565-786.325 989.157-786.325 986.725-779.029 986.725-772.341 974.261-766.261 949.333-763.829 940.213-761.701 932.461-759.877 926.077-758.053 919.693-756.837 914.677-756.229 911.029-755.013 909.205-753.645 906.469-752.125 902.821-750.605 899.173-749.237 895.829-748.021 892.789-743.157 878.197-737.381 864.213-730.693 850.837-723.397 823.477-714.733 794.749-704.701 764.653-694.669 734.557-686.309 712.213-679.621 697.621L-668.677 670.261C-668.069 668.437-666.701 664.941-664.573 659.773-662.445 654.605-661.381 650.805-661.381 648.373-661.381 645.941-662.293 644.117-664.117 642.901-668.373 639.861-670.501 633.781-670.501 624.661-670.501 609.461-664.725 596.997-653.173 587.269-646.485 579.365-637.517 573.741-626.269 570.397-615.021 567.053-601.493 565.381-585.685 565.381ZM2234.46 545.317C2258.17 546.533 2280.21 555.045 2300.58 570.853 2320.95 586.661 2332.65 604.901 2335.69 625.573 2336.91 631.653 2337.51 636.517 2337.51 640.165 2337.51 662.661 2328.39 687.893 2310.15 715.861 2291.91 743.829 2272.46 763.589 2251.79 775.141 2242.67 779.397 2233.85 781.525 2225.34 781.525 2215 781.525 2206.64 778.789 2200.26 773.317 2193.87 767.845 2190.99 760.853 2191.59 752.341 2191.59 746.869 2193.57 740.637 2197.52 733.645 2201.47 726.653 2210.44 715.253 2224.43 699.445 2245.1 669.045 2255.43 647.157 2255.43 633.781 2255.43 624.661 2249.96 619.189 2239.02 617.365 2232.33 615.541 2214.24 618.125 2184.75 625.117 2155.27 632.109 2140.52 637.125 2140.52 640.165 2140.52 640.773 2140.37 641.837 2140.07 643.357 2139.76 644.877 2138.7 645.333 2136.87 644.725 2134.44 644.117 2117.27 654.149 2085.35 674.821 2053.43 695.493 2036.86 707.349 2035.64 710.389 2035.03 713.429 2032.75 716.621 2028.8 719.965 2024.85 723.309 2020.14 726.197 2014.67 728.629 2003.72 735.317 1993.84 744.437 1985.03 755.989 1976.21 767.541 1964.81 785.781 1950.83 810.709 1943.53 821.045 1937.6 832.293 1933.04 844.453 1928.48 856.613 1926.2 867.557 1926.2 877.285 1926.2 883.973 1927.11 889.749 1928.94 894.613 1931.37 903.733 1937.91 912.093 1948.55 919.693 1959.19 927.293 1979.71 940.213 2010.11 958.453 2041.11 976.085 2069.08 994.781 2094.01 1014.54 2118.94 1034.3 2134.14 1049.96 2139.61 1061.51 2149.34 1075.49 2154.2 1093.73 2154.2 1116.23 2154.2 1133.86 2151.77 1150.58 2146.91 1166.39 2141.43 1177.94 2134.44 1188.73 2125.93 1198.77 2117.42 1208.8 2109.82 1213.51 2103.13 1212.9 2097.05 1214.73 2091.88 1217.01 2087.63 1219.74 2083.37 1222.48 2079.72 1224.45 2076.68 1225.67 2069.39 1229.93 2050.69 1234.33 2020.59 1238.89 1990.5 1243.45 1965.42 1245.43 1945.35 1244.82L1908.87 1233.88 1909.79 1231.14C1909.79 1225.06 1904.62 1221.72 1894.28 1221.11 1881.51 1213.21 1867.83 1199.68 1853.24 1180.53 1838.65 1161.37 1829.53 1146.63 1825.88 1136.29 1824.06 1131.43 1823.15 1128.09 1823.15 1126.26 1823.15 1123.22 1824.36 1120.94 1826.79 1119.42 1829.23 1117.9 1832.27 1116.38 1835.91 1114.86 1839.56 1113.34 1842.3 1112.28 1844.12 1111.67 1855.07 1104.37 1863.27 1100.73 1868.75 1100.73 1874.83 1100.73 1879.99 1104.68 1884.25 1112.58 1892.76 1127.78 1906.44 1140.4 1925.29 1150.43 1944.14 1160.46 1965.11 1165.48 1988.22 1165.48 2008.89 1165.48 2027.43 1161.83 2043.85 1154.53 2059.66 1147.24 2067.56 1136.6 2067.56 1122.61 2067.56 1112.28 2063 1099.81 2053.88 1085.22 2052.67 1081.57 2050.54 1078.23 2047.5 1075.19 2044.46 1072.15 2040.81 1069.11 2036.55 1066.07 2026.83 1058.77 2016.19 1049.35 2004.63 1037.8 1994.91 1034.15 1984.87 1029.29 1974.54 1023.21L1955.39 1014.09C1940.19 1006.79 1923.16 995.085 1904.31 978.973 1885.47 962.861 1872.39 947.813 1865.1 933.829 1851.72 921.061 1845.03 901.605 1845.03 875.461 1845.03 846.885 1851.72 820.133 1865.1 795.205 1872.39 778.789 1890.03 753.557 1917.99 719.509 1945.96 685.461 1966.63 664.181 1980.01 655.669L2003.72 632.869C2004.33 630.437 2005.24 629.069 2006.46 628.765 2007.67 628.461 2008.59 628.309 2009.19 628.309 2011.02 627.093 2017.4 624.205 2028.35 619.645 2039.29 615.085 2050.84 607.029 2063 595.477 2100.09 577.237 2133.07 564.317 2161.95 556.717 2190.83 549.117 2215 545.317 2234.46 545.317Z" stroke="#FF0000" stroke-width="10" stroke-linejoin="round" stroke-miterlimit="10" fill="#FFFF00" fill-rule="evenodd"/><text fill="#000000" fill-opacity="0" font-family="Arial,Arial_MSFontService,sans-serif" font-size="827.184" x="-831.013" y="1269.1">Persian Switching</text></g></svg>